<svg    xmlns="http://www.w3.org/2000/svg">
<path id="Vector" d="M10.8906 3.0303C11.2621 2.61639 11.5453 2.13562 11.724 1.61559C11.9028 1.09557 11.9735 0.546525 11.9321 0C10.7917 0.0889967 9.73312 0.607538 8.9844 1.4439C8.62586 1.84475 8.35415 2.31108 8.18538 2.81527C8.0166 3.31947 7.95418 3.85128 8.00182 4.37921C8.5581 4.38369 9.10799 4.26436 9.60892 4.03045C10.1099 3.79654 10.5484 3.45433 10.8906 3.0303ZM13.3667 10.0978C13.3733 9.36993 13.5716 8.65565 13.9429 8.02241C14.3143 7.38917 14.8464 6.85784 15.4891 6.47857C15.0835 5.91358 14.5473 5.44773 13.9231 5.11795C13.2988 4.78817 12.6037 4.60354 11.8928 4.5787C10.36 4.42671 8.9451 5.44314 8.12956 5.44314C7.31402 5.44314 6.1644 4.59769 4.88705 4.61669C4.05199 4.64329 3.23831 4.87867 2.52538 5.29987C1.81245 5.72108 1.2246 6.31374 0.819185 7.02003C-0.910151 9.92684 0.377025 14.2491 2.10636 16.5954C2.89242 17.7448 3.875 19.0462 5.172 18.9987C6.469 18.9512 6.89151 18.2198 8.39485 18.2198C9.8982 18.2198 10.36 18.9987 11.6374 18.9702C12.9147 18.9417 13.8187 17.7923 14.644 16.6429C15.2287 15.8084 15.6854 14.8965 16 13.9356C15.2213 13.6145 14.5569 13.0799 14.0889 12.3979C13.6209 11.7159 13.3699 10.9163 13.3667 10.0978Z" fill="currentColor"/>
</svg>
