<svg  fill="currentColor" xmlns="http://www.w3.org/2000/svg">
<path id="Vector" d="M8.67508 7.28255H16.8645C16.9548 7.77691 17 8.24913 17 8.69922C17 10.3003 16.6574 11.7299 15.9721 12.988C15.2868 14.246 14.3097 15.2292 13.0409 15.9375C11.772 16.6458 10.3167 17 8.67508 17C7.4928 17 6.367 16.7768 5.29767 16.3304C4.22835 15.884 3.30587 15.2808 2.53023 14.5208C1.7546 13.7609 1.13898 12.857 0.683389 11.8092C0.227796 10.7615 0 9.65842 0 8.5C0 7.34158 0.227796 6.2385 0.683389 5.19076C1.13898 4.14301 1.7546 3.23915 2.53023 2.47917C3.30587 1.71918 4.22835 1.11599 5.29767 0.669596C6.367 0.223199 7.4928 0 8.67508 0C10.9342 0 12.8733 0.741536 14.4924 2.22461L12.1316 4.44922C11.2053 3.57118 10.0532 3.13216 8.67508 3.13216C7.70365 3.13216 6.80565 3.37196 5.98106 3.85156C5.15648 4.33116 4.50321 4.98231 4.02126 5.80501C3.53931 6.62771 3.29834 7.52604 3.29834 8.5C3.29834 9.47396 3.53931 10.3723 4.02126 11.195C4.50321 12.0177 5.15648 12.6688 5.98106 13.1484C6.80565 13.628 7.70365 13.8678 8.67508 13.8678C9.33023 13.8678 9.93267 13.7793 10.4824 13.6022C11.0321 13.4251 11.4839 13.2038 11.8379 12.9382C12.1918 12.6725 12.5006 12.37 12.7641 12.0306C13.0277 11.6912 13.2216 11.3702 13.3458 11.0677C13.4701 10.7652 13.5548 10.4774 13.6 10.2044H8.67508V7.28255Z" fill="currentColor"/>
</svg>
