<svg  fill="currentColor" xmlns="http://www.w3.org/2000/svg">
<path id="Vector" d="M18 0H2C0.9 0 0.00999999 0.84375 0.00999999 1.875L0 13.125C0 14.1563 0.9 15 2 15H18C19.1 15 20 14.1563 20 13.125V1.875C20 0.84375 19.1 0 18 0ZM17.6 3.98438L10.53 8.12813C10.21 8.31563 9.79 8.31563 9.47 8.12813L2.4 3.98438C2.15 3.83438 2 3.58125 2 3.30938C2 2.68125 2.73 2.30625 3.3 2.63437L10 6.5625L16.7 2.63437C17.27 2.30625 18 2.68125 18 3.30938C18 3.58125 17.85 3.83438 17.6 3.98438Z" fill="currentColor"/>
</svg>
