<svg width="41" height="41" viewBox="0 0 41 41" fill="none" xmlns="http://www.w3.org/2000/svg">
<g id="Group 33">
<rect id="Rectangle 6" x="0.5" y="0.5" width="40" height="40" rx="3.5" fill="url(#paint0_linear_75_329)" stroke="url(#paint1_linear_75_329)"/>
<g id="Group 32">
<path id="Vector" d="M18.0396 24.6164H22.2766V26.1875H18.0396V24.6164Z" fill="#E1E1E1"/>
<g id="Group 31">
<g id="Group 29">
<path id="Vector_2" d="M13.1676 30.6909C12.1455 30.6909 11.1467 30.3986 10.2966 29.8511C9.44663 29.3036 8.78462 28.5254 8.3933 27.615C8.00259 26.7045 7.8997 25.7027 8.09934 24.7361C8.29899 23.7696 8.79075 22.8817 9.51338 22.1849C10.236 21.4881 11.1571 21.0136 12.1596 20.8213C13.1615 20.6291 14.2007 20.7277 15.145 21.1048C16.0887 21.4819 16.8959 22.1206 17.4636 22.94C18.0313 23.7594 18.3344 24.7227 18.3344 25.7082C18.3344 27.0297 17.79 28.297 16.8212 29.2315C15.8523 30.1659 14.5375 30.6909 13.1676 30.6909ZM13.1676 22.3864C12.486 22.3864 11.8203 22.5812 11.2538 22.9463C10.6874 23.3112 10.2452 23.83 9.98493 24.437C9.72405 25.044 9.65607 25.7119 9.78835 26.3562C9.92185 27.0006 10.2501 27.5925 10.7314 28.0571C11.2134 28.5216 11.827 28.8379 12.4952 28.9661C13.1633 29.0943 13.8565 29.0285 14.4855 28.7771C15.115 28.5257 15.6533 28.0999 16.0318 27.5537C16.4102 27.0074 16.6117 26.3652 16.6117 25.7082C16.6117 24.8272 16.2492 23.9823 15.6031 23.3593C14.957 22.7364 14.0813 22.3864 13.1676 22.3864ZM26.0849 30.6909C25.0635 30.6909 24.064 30.3986 23.2146 29.8511C22.3646 29.3036 21.7026 28.5254 21.3113 27.615C20.9206 26.7045 20.8177 25.7027 21.0173 24.7361C21.217 23.7696 21.7087 22.8817 22.4314 22.1849C23.154 21.4881 24.075 21.0136 25.0769 20.8213C26.0794 20.6291 27.1187 20.7277 28.0624 21.1048C29.0067 21.4819 29.8139 22.1206 30.3815 22.94C30.9492 23.7594 31.2524 24.7227 31.2524 25.7082C31.2524 27.0297 30.708 28.297 29.7391 29.2315C28.7703 30.1659 27.4555 30.6909 26.0849 30.6909ZM26.0849 22.3864C25.404 22.3864 24.7377 22.5812 24.1712 22.9463C23.6047 23.3112 23.1632 23.83 22.9029 24.437C22.642 25.044 22.5734 25.7119 22.7063 26.3562C22.8392 27.0006 23.1675 27.5925 23.6494 28.0571C24.1314 28.5216 24.745 28.8379 25.4131 28.9661C26.0813 29.0943 26.7739 29.0285 27.4034 28.7771C28.033 28.5257 28.5713 28.0999 28.9491 27.5537C29.3276 27.0074 29.5297 26.3652 29.5297 25.7082C29.5297 24.8272 29.1672 23.9823 28.5211 23.3593C27.875 22.7364 26.9986 22.3864 26.0849 22.3864Z" fill="#E1E1E1"/>
<path id="Vector_3" d="M13.8028 29.9446C16.1428 29.9446 18.0399 28.0484 18.0399 25.7093C18.0399 23.3703 16.1428 21.4741 13.8028 21.4741C11.4628 21.4741 9.56519 23.3703 9.56519 25.7093C9.56519 28.0484 11.4628 29.9446 13.8028 29.9446Z" fill="#E1E1E1"/>
<path id="Vector_4" d="M26.5139 29.9446C28.8539 29.9446 30.7509 28.0484 30.7509 25.7093C30.7509 23.3703 28.8539 21.4741 26.5139 21.4741C24.1739 21.4741 22.2769 23.3703 22.2769 25.7093C22.2769 28.0484 24.1739 29.9446 26.5139 29.9446Z" fill="#E1E1E1"/>
</g>
<g id="Group 30">
<path id="Vector_5" d="M30.8809 17.5463H8.84729C8.37965 17.5463 8 17.898 8 18.3319C8 18.7657 8.37965 19.1174 8.84729 19.1174H30.8809C31.3486 19.1174 31.7282 18.7657 31.7282 18.3319C31.7282 17.898 31.3486 17.5463 30.8809 17.5463Z" fill="#E1E1E1"/>
<path id="Vector_6" d="M29.3728 19.1096H10.3558L12.051 11.4504C12.1565 10.9592 12.4409 10.5163 12.8549 10.1949C13.2695 9.87347 13.7902 9.69286 14.3301 9.68292H25.3894C25.9372 9.68391 26.4675 9.86045 26.8906 10.1826C27.3136 10.5048 27.6041 10.9527 27.7113 11.4504L29.3728 19.1096ZM12.4234 17.5385H27.3046L26.0505 11.7568C26.0192 11.6154 25.9366 11.4882 25.8161 11.3966C25.6962 11.3051 25.5449 11.2547 25.3894 11.254H14.3301C14.1746 11.2547 14.024 11.3051 13.9035 11.3966C13.7836 11.4882 13.7004 11.6154 13.6691 11.7568L12.4234 17.5385Z" fill="#E1E1E1"/>
<path id="Vector_7" d="M28.3217 18.324H11.3729L12.8391 11.6075C12.9078 11.2872 13.0934 10.9988 13.3652 10.7911C13.637 10.5835 13.9781 10.4695 14.3306 10.4685H25.3893C25.7418 10.4695 26.0829 10.5835 26.3547 10.7911C26.6265 10.9988 26.8127 11.2872 26.8808 11.6075L28.3217 18.324Z" fill="#E1E1E1"/>
</g>
</g>
</g>
</g>
<defs>
<linearGradient id="paint0_linear_75_329" x1="20.5" y1="26.65" x2="20.5" y2="41" gradientUnits="userSpaceOnUse">
<stop stopColor="#030303"/>
<stop offset="1" stopColor="#100F0F"/>
</linearGradient>
<linearGradient id="paint1_linear_75_329" x1="18.45" y1="-8.2" x2="23.575" y2="43.05" gradientUnits="userSpaceOnUse">
<stop stopColor="#D2D2D2"/>
<stop offset="1" stopColor="#A6A6A6" stopOpacity="0"/>
</linearGradient>
</defs>
</svg>
